<svg viewBox="0 0 512 512" fill="none" xmlns="http://www.w3.org/2000/svg">
  <path d="M395.759 11.787L393.795 10.5592C382.008 3.56067 367.519 0 354.259 0C340.999 0 327.861 3.56067 315.951 10.5592L116.308 133.341C92.611 147.338 78 173.368 78 201.485V430.964C78 459.081 92.611 485.111 116.308 499.108L120.728 501.441C132.515 508.439 145.776 512 159.036 512C172.296 512 185.434 508.439 197.344 501.441L395.759 383.693C419.456 369.573 434.067 343.666 434.067 315.549V79.9309C434.067 51.8139 419.456 25.7842 395.759 11.787ZM127.727 489.408L123.306 487.075C103.907 475.534 91.8743 454.047 91.8743 430.964V201.485C91.8743 178.402 103.907 156.915 123.306 145.374L322.95 22.7146C332.527 17.0667 343.331 14.1199 354.259 14.1199C365.187 14.1199 377.342 17.0667 386.796 22.7146L388.761 23.8197C405.091 33.5194 416.141 50.3405 419.211 69.2489C412.58 55.2518 397.847 51.3228 380.534 61.5137L192.801 177.542C169.35 191.171 152.16 206.642 152.16 234.759V466.08C152.16 483.024 158.913 493.951 169.472 497.143C166.035 497.757 162.597 498.126 159.036 498.126C148.108 498.003 137.181 495.056 127.727 489.408Z" fill="#121212"/>
  <path d="M127.727 489.408L123.306 487.075C103.907 475.534 91.8743 454.047 91.8743 430.964V201.485C91.8743 178.402 103.907 156.915 123.306 145.374L322.95 22.7146C332.527 17.0667 343.331 14.1199 354.259 14.1199C365.187 14.1199 377.342 17.0667 386.796 22.7146L388.761 23.8197C405.091 33.5194 416.141 50.3405 419.211 69.2489C412.58 55.2518 397.847 51.3228 380.534 61.5137L192.801 177.542C169.35 191.171 152.16 206.642 152.16 234.759V466.08C152.16 483.024 158.913 493.951 169.472 497.143C166.035 497.757 162.597 498.126 159.036 498.126C148.108 498.003 137.181 495.056 127.727 489.408Z" fill="#F9F9F9"/>
  <path d="M243.706 361.654C243.972 362.206 244.105 362.912 244.105 363.773C244.105 364.633 243.972 365.512 243.706 366.41C243.364 367.447 242.965 368.408 242.51 369.293L225.416 400.776C224.96 401.616 224.39 402.439 223.706 403.245C223.06 403.981 222.358 404.596 221.598 405.09C220.876 405.558 220.192 405.844 219.547 405.946C218.939 406.024 218.388 405.929 217.894 405.661C217.363 405.326 216.964 404.883 216.698 404.331C216.432 403.779 216.299 403.073 216.299 402.213C216.299 401.307 216.432 400.405 216.698 399.508C217.002 398.495 217.4 397.534 217.894 396.624L225.814 381.969L187.524 406.835C186.802 407.304 186.119 407.59 185.473 407.692C184.865 407.77 184.295 407.687 183.763 407.443C183.27 407.175 182.871 406.732 182.567 406.114C182.339 405.537 182.225 404.819 182.225 403.958C182.225 403.098 182.339 402.231 182.567 401.358C182.871 400.346 183.27 399.385 183.763 398.475C184.295 397.541 184.865 396.718 185.473 396.006C186.119 395.224 186.802 394.599 187.524 394.131L225.814 369.264L217.894 364.964C217.4 364.696 217.002 364.253 216.698 363.635C216.432 363.038 216.299 362.309 216.299 361.448C216.299 360.588 216.432 359.709 216.698 358.811C216.964 357.869 217.363 356.908 217.894 355.928C218.388 355.019 218.939 354.208 219.547 353.496C220.192 352.714 220.876 352.089 221.598 351.62C222.358 351.127 223.06 350.829 223.706 350.727C224.39 350.691 224.96 350.796 225.416 351.044L242.51 360.325C243.041 360.614 243.44 361.057 243.706 361.654Z" fill="#3DF950"/>
  <path d="M389.46 329.234V342.822L319.204 388.447V374.858L389.46 329.234Z" fill="white"/>
</svg>
